<svg width="500" height="500" viewBox="0 0 500 500" fill="none" xmlns="http://www.w3.org/2000/svg">
<rect width="500" height="500" fill="white"/>
<path d="M240.726 341.938C256.451 339.922 271.371 335.083 285.08 327.422C318.951 308.47 338.306 276.212 339.919 236.293V232.664H387.097C384.274 208.873 375 187.099 361.693 168.551L313.709 199.196C328.226 222.18 330.242 247.18 318.951 272.583C306.048 303.228 275.403 329.438 240.726 341.938Z" fill="black"/>
<path d="M387.903 239.918H347.177C344.355 280.241 323.387 314.515 288.71 333.466C268.951 344.353 246.371 349.999 223.387 349.999C205.645 349.999 187.5 346.773 170.161 340.321C191.129 353.224 214.516 360.483 238.71 360.483H239.113C282.661 360.483 322.177 337.499 344.355 298.386L346.371 295.16L373.387 312.499C383.064 293.547 388.306 272.579 388.306 249.999C388.306 246.773 387.903 243.547 387.903 239.918Z" fill="black"/>
<path d="M239.112 367.745C195.16 367.745 154.031 345.971 124.999 308.874C147.176 355.648 194.757 388.31 249.999 388.31C301.209 388.31 345.967 360.487 369.757 318.955L348.386 305.648C324.596 344.358 284.273 367.745 239.112 367.745Z" fill="black"/>
<path d="M250 395.565C169.758 395.565 104.435 330.645 104.435 250C104.435 169.758 169.355 104.435 250 104.435C330.645 104.435 395.565 169.355 395.565 250C395.565 330.242 330.242 395.565 250 395.565ZM250 50C139.516 50 50 139.516 50 250C50 360.484 139.516 450 250 450C360.484 450 450 360.484 450 250C450 139.516 360.484 50 250 50Z" fill="black"/>
<path d="M212.488 93.498C225.349 93.498 237.703 98.5164 246.92 107.485L247.42 107.979C252.544 113.112 256.426 119.354 258.764 126.227L258.985 126.894C260.295 130.939 261.05 135.13 261.242 139.354C265.757 139.536 270.24 140.339 274.562 141.752L275.232 141.977C281.913 144.267 288.023 147.968 293.147 152.828L293.656 153.318L293.688 153.351L293.721 153.382L294.132 153.794L294.974 154.634C299.126 158.88 302.447 163.87 304.761 169.348C307.229 175.19 308.5 181.468 308.5 187.811C308.5 194.153 307.229 200.431 304.761 206.273C302.293 212.116 298.679 217.405 294.132 221.827L213.147 301.238L226.97 314.797L227.244 315.071C228.6 316.457 229.684 318.087 230.439 319.875L230.586 320.233C231.295 322.038 231.66 323.961 231.66 325.902C231.66 327.843 231.295 329.766 230.586 331.57L230.439 331.929C229.634 333.836 228.454 335.563 226.97 337.007L226.968 337.008C224.004 339.888 220.034 341.5 215.901 341.5C211.898 341.5 208.046 339.988 205.115 337.274L204.834 337.008L204.822 336.997L204.811 336.985L187.452 319.967V319.966C185.113 317.687 183.223 314.991 181.878 312.02L181.615 311.419C180.254 308.199 179.553 304.739 179.553 301.243C179.553 297.747 180.254 294.287 181.615 291.066L181.878 290.466C183.223 287.494 185.112 284.798 187.451 282.52L271.973 199.63L272.284 199.318C273.725 197.844 274.878 196.111 275.681 194.21L275.836 193.828C276.59 191.909 276.978 189.865 276.978 187.801C276.978 185.737 276.59 183.692 275.836 181.773L275.681 181.392C274.878 179.49 273.725 177.758 272.284 176.283L271.975 175.974L271.489 175.498H271.488C268.306 172.41 264.081 170.639 259.658 170.527L259.229 170.521C254.643 170.518 250.235 172.302 246.942 175.495L177.374 243.724L177.375 243.725L177.349 243.751L176.397 244.692L176.375 244.714L176.354 244.735C173.389 247.621 169.415 249.237 165.277 249.237C161.141 249.237 157.168 247.623 154.204 244.738L153.929 244.465C152.663 243.171 151.635 241.665 150.89 240.017L150.733 239.661C149.928 237.754 149.513 235.704 149.513 233.634C149.513 231.563 149.928 229.514 150.733 227.606L150.89 227.251C151.684 225.494 152.8 223.9 154.181 222.552L224.79 153.302L224.795 153.296L224.801 153.291C226.374 151.755 227.624 149.919 228.477 147.892L228.632 147.51C229.383 145.592 229.767 143.549 229.766 141.487C229.764 139.288 229.322 137.112 228.466 135.086C227.663 133.187 226.512 131.456 225.072 129.983L224.781 129.692C221.491 126.49 217.08 124.698 212.488 124.698C207.906 124.698 203.505 126.483 200.217 129.673L106.764 221.319L106.74 221.343C103.776 224.223 99.8059 225.835 95.6729 225.835C91.6691 225.835 87.8179 224.323 84.8867 221.609L84.6064 221.343L84.6045 221.342C83.2128 219.988 82.0889 218.386 81.29 216.619L81.1348 216.264C80.3292 214.356 79.9141 212.307 79.9141 210.236L79.9189 209.849C79.9675 207.911 80.3796 205.998 81.1348 204.21C81.9404 202.303 83.1202 200.575 84.6045 199.132L178.034 107.508L178.045 107.497L178.056 107.487C187.273 98.5174 199.627 93.4981 212.488 93.498Z" fill="black" stroke="white" stroke-width="15"/>
<path d="M212.874 125.894C216.87 125.991 220.689 127.592 223.561 130.387L223.835 130.661C225.191 132.047 226.275 133.677 227.03 135.465L227.177 135.823C227.886 137.628 228.251 139.55 228.251 141.491C228.251 143.432 227.886 145.356 227.177 147.16L227.03 147.519C226.225 149.426 225.045 151.153 223.561 152.597L154.459 220.358L154.439 220.378C152.96 221.818 151.765 223.521 150.916 225.399L150.751 225.777C149.895 227.806 149.454 229.985 149.454 232.187C149.454 234.388 149.895 236.568 150.751 238.596L150.916 238.975C151.765 240.853 152.96 242.557 154.439 243.996H154.438C157.729 247.199 162.14 248.99 166.731 248.99C171.314 248.99 175.716 247.205 179.005 244.014L248.117 176.232L248.137 176.213C251.101 173.327 255.076 171.712 259.213 171.712C263.349 171.712 267.322 173.326 270.286 176.21L270.562 176.484C271.917 177.87 273.002 179.5 273.757 181.288H273.756C274.561 183.195 274.978 185.245 274.978 187.315C274.977 189.385 274.561 191.434 273.756 193.341L273.757 193.342C272.951 195.249 271.77 196.976 270.286 198.42L201.186 266.182L201.175 266.192L201.164 266.202C191.945 275.169 179.592 280.187 166.731 280.187C153.871 280.186 141.518 275.169 132.3 266.202V266.203C128.037 262.058 124.595 257.15 122.147 251.739L121.671 250.65C119.203 244.808 117.932 238.529 117.932 232.187C117.932 225.844 119.203 219.566 121.671 213.724L122.147 212.635C124.59 207.233 128.025 202.333 132.277 198.192L201.391 130.409L201.401 130.399L201.411 130.39L201.691 130.123C204.624 127.404 208.479 125.889 212.487 125.889L212.874 125.894Z" fill="black" stroke="white" stroke-width="15"/>
</svg>
